<?xml version="1.0" encoding="utf-8"?>
<!-- Generator: Adobe Illustrator 26.4.1, SVG Export Plug-In . SVG Version: 6.00 Build 0)  -->
<svg version="1.1" id="Layer_1" xmlns="http://www.w3.org/2000/svg" xmlns:xlink="http://www.w3.org/1999/xlink" x="0px" y="0px"
	 viewBox="0 0 651 301.9" style="enable-background:new 0 0 651 301.9;" xml:space="preserve">
<style type="text/css">
	.st0{fill:url(#SVGID_1_);}
	.st1{fill:url(#SVGID_00000088816032430819305310000018238550329612156586_);}
	.st2{fill:url(#SVGID_00000160165711193659114580000001679065423411721391_);}
	.st3{fill:url(#SVGID_00000018951966197244826930000002286631876898742421_);}
	.st4{fill:url(#SVGID_00000091013168631557778600000005460676247781051012_);}
	.st5{fill:url(#SVGID_00000164486376674290036050000007471736375639571875_);}
	.st6{fill:#17AE6B;}
	.st7{fill:#CFEEB1;}
	.st8{fill:#0C814F;}
	.st9{fill:url(#SVGID_00000178906187861745920530000006370203819590982585_);}
	.st10{fill:#1E1B37;}
	.st11{fill:url(#SVGID_00000001621783276104754790000012797862902260764824_);}
</style>
<g>
	<g>
		<linearGradient id="SVGID_1_" gradientUnits="userSpaceOnUse" x1="74.9071" y1="139.5946" x2="122.1351" y2="200.478">
			<stop  offset="0" style="stop-color:#0C814F"/>
			<stop  offset="7.798404e-02" style="stop-color:#138650"/>
			<stop  offset="0.1947" style="stop-color:#289454"/>
			<stop  offset="0.3357" style="stop-color:#49AB5A"/>
			<stop  offset="0.4839" style="stop-color:#74C862"/>
		</linearGradient>
		<path class="st0" d="M130.1,226.6L76,186.2c-2.2-1.6-3.1-4.6-2.1-7.1l10.8-30.7l20.5-15.3l-10.8,30.7c-1,2.6-0.1,5.5,2.1,7.1
			l54.1,40.3L130.1,226.6z"/>
		
			<linearGradient id="SVGID_00000089535441061654956680000001248654684493894817_" gradientUnits="userSpaceOnUse" x1="126.836" y1="129.4065" x2="189.7068" y2="173.9546">
			<stop  offset="0.3299" style="stop-color:#0C814F"/>
			<stop  offset="0.4529" style="stop-color:#108450"/>
			<stop  offset="0.5876" style="stop-color:#1E8D52"/>
			<stop  offset="0.7278" style="stop-color:#339C56"/>
			<stop  offset="0.8708" style="stop-color:#52B15C"/>
			<stop  offset="1" style="stop-color:#74C862"/>
		</linearGradient>
		<path style="fill:url(#SVGID_00000089535441061654956680000001248654684493894817_);" d="M168.6,196.9l-54.1-40.3
			c-2.2-1.6-3.1-4.6-2.1-7.1l10.8-30.7l20.5-15.3L133,134.2c-1,2.6-0.1,5.5,2.1,7.1l54.1,40.3L168.6,196.9z"/>
		
			<linearGradient id="SVGID_00000096749473036028169710000003072436797983021730_" gradientUnits="userSpaceOnUse" x1="159.1007" y1="188.84" x2="92.8825" y2="137.7804">
			<stop  offset="0" style="stop-color:#0C814F"/>
			<stop  offset="0.2399" style="stop-color:#309956"/>
			<stop  offset="0.6027" style="stop-color:#61BB5F"/>
			<stop  offset="0.7825" style="stop-color:#74C862"/>
		</linearGradient>
		<polygon style="fill:url(#SVGID_00000096749473036028169710000003072436797983021730_);" points="148.1,195.1 84.9,147.9 
			105.4,132.6 168.5,179.8 		"/>
		
			<linearGradient id="SVGID_00000139276605206683968160000011544349681652208032_" gradientUnits="userSpaceOnUse" x1="123.0752" y1="135.4957" x2="206.7504" y2="135.4957">
			<stop  offset="0" style="stop-color:#A095F3"/>
			<stop  offset="1" style="stop-color:#8677F0"/>
		</linearGradient>
		<polygon style="fill:url(#SVGID_00000139276605206683968160000011544349681652208032_);" points="186.3,166.8 123.1,119.6 
			143.6,104.2 206.8,151.5 		"/>
		
			<linearGradient id="SVGID_00000143576521339308343950000002525921321493119909_" gradientUnits="userSpaceOnUse" x1="80.366" y1="98.3149" x2="114.0799" y2="139.3021">
			<stop  offset="0" style="stop-color:#9DD35F"/>
			<stop  offset="1" style="stop-color:#0C814F"/>
		</linearGradient>
		<path style="fill:url(#SVGID_00000143576521339308343950000002525921321493119909_);" d="M105.4,132.6l-20.5,15.3v-41.5
			c0-5.7-2.7-11-7.2-14.3L63.4,81.5l20.8-15.4l14,10.6c4.5,3.4,7.1,8.6,7.1,14.2C105.4,105.5,105.5,132.6,105.4,132.6z"/>
		
			<linearGradient id="SVGID_00000173155319530623766770000000828706501192904873_" gradientUnits="userSpaceOnUse" x1="119.9046" y1="72.9832" x2="148.2129" y2="104.0237">
			<stop  offset="0" style="stop-color:#9DD35F"/>
			<stop  offset="1" style="stop-color:#0C814F"/>
		</linearGradient>
		<path style="fill:url(#SVGID_00000173155319530623766770000000828706501192904873_);" d="M143.6,104.3l-20.5,15.3V78
			c0-5.7-2.7-11-7.2-14.3l-14.3-10.6l20.8-15.4l14,10.6c4.5,3.4,7.1,8.6,7.1,14.2C143.6,77.1,143.7,104.3,143.6,104.3z"/>
		<path class="st6" d="M81.9,223.9l-15-11.2c-1.1-0.8-1.9-2.6-1.9-4.1V188c0-1.5,0.9-2,1.9-1.2l15,11.2c1.1,0.8,1.9,2.6,1.9,4.1
			v20.6C83.8,224.1,82.9,224.7,81.9,223.9z"/>
		<path class="st6" d="M134.4,262.8l-15-11.2c-1.1-0.8-1.9-2.6-1.9-4.1V227c0-1.5,0.9-2,1.9-1.2l15,11.2c1.1,0.8,1.9,2.6,1.9,4.1
			v20.6C136.3,263.1,135.5,263.6,134.4,262.8z"/>
		<path class="st6" d="M172.9,232.8l-15-11.2c-1.1-0.8-1.9-2.6-1.9-4.1V197c0-1.5,0.9-2,1.9-1.2l15,11.2c1.1,0.8,1.9,2.6,1.9,4.1
			v20.6C174.8,233.1,173.9,233.6,172.9,232.8z"/>
		<g>
			<g>
				<polygon class="st7" points="219.9,128.3 159.8,173.3 97.1,126.5 157.2,81.5 				"/>
			</g>
			<g>
				<path class="st8" d="M133.3,120.5l9.1,6.8l-8.8,6.6l-9.1-6.8L133.3,120.5 M133.1,115.2L117.4,127l16.4,12.3l15.8-11.8
					L133.1,115.2L133.1,115.2z"/>
				<path class="st8" d="M158.2,101.9l9.1,6.8l-8.8,6.6l-9.1-6.8L158.2,101.9 M158,96.6l-15.8,11.8l16.4,12.3l15.8-11.8L158,96.6
					L158,96.6z"/>
				<path class="st8" d="M159.3,140l9.1,6.8l-8.8,6.6l-9.1-6.8L159.3,140 M159.2,134.7l-15.8,11.8l16.4,12.3l15.8-11.8L159.2,134.7
					L159.2,134.7z"/>
				<path class="st8" d="M184.2,121.4l9.1,6.8l-8.8,6.6l-9.1-6.8L184.2,121.4 M184.1,116l-15.8,11.8l16.4,12.3l15.8-11.8L184.1,116
					L184.1,116z"/>
				<polygon class="st8" points="144.9,141.4 140.9,144.4 136.6,141.2 140.6,138.2 				"/>
				<polygon class="st8" points="181.5,114 177.5,117 173.2,113.8 177.2,110.8 				"/>
				<polygon class="st8" points="182.4,141.8 178.3,144.8 174,141.6 178.1,138.6 				"/>
				<polygon class="st8" points="156.4,122.4 152.3,125.4 144.1,119.3 148.2,116.2 				"/>
				<polygon class="st8" points="144.3,113.3 140.2,116.4 135.9,113.2 140,110.1 				"/>
				<path class="st8" d="M158.1,93.2l47.3,35.3L160,162.4l-47.3-35.3L158.1,93.2 M157.9,87.8L105.6,127l54.6,40.8l52.3-39.2
					L157.9,87.8L157.9,87.8z"/>
				<polygon class="st8" points="173.8,119.8 148.6,138.7 144.3,135.5 169.5,116.6 				"/>
				<polygon class="st8" points="163.3,127.5 174.1,135.6 170,138.7 159.2,130.6 				"/>
			</g>
		</g>
		
			<linearGradient id="SVGID_00000029029417880786463180000013727870347733012412_" gradientUnits="userSpaceOnUse" x1="183.3553" y1="156.7156" x2="193.3475" y2="227.9196">
			<stop  offset="0" style="stop-color:#AEE17B"/>
			<stop  offset="1" style="stop-color:#74C862"/>
		</linearGradient>
		<polygon style="fill:url(#SVGID_00000029029417880786463180000013727870347733012412_);" points="148.1,195.1 206.7,151.5 
			220,128.2 159.3,173.4 		"/>
	</g>
	<g>
		<path class="st10" d="M430.2,132.6c-2.3,0-4.2-0.6-5.6-1.9c-1.4-1.3-2.1-2.9-2.1-4.8c0-1.9,0.7-3.5,2.1-4.8
			c1.4-1.3,3.3-1.9,5.6-1.9c2.3,0,4.2,0.6,5.6,1.8c1.4,1.2,2.1,2.7,2.1,4.6c0,2-0.7,3.7-2.1,5C434.4,132,432.5,132.6,430.2,132.6z
			 M423.8,172.7v-36.1h12.6v36.1H423.8z"/>
		<path class="st10" d="M329.6,141.5c-0.4-0.8-1.1-1.7-2.2-2.7c-1-1-2.4-1.8-4.1-2.5c-1.7-0.7-3.6-1.1-5.8-1.1
			c-3.5,0-6.5,0.8-9.1,2.5c-2.6,1.7-4.6,4-6,6.8c-1.4,2.8-2.2,6-2.2,9.4c0,3.5,0.7,6.6,2.2,9.4c1.4,2.8,3.5,5.1,6,6.8
			s5.6,2.5,9.1,2.5c2.3,0,4.3-0.4,6-1.3c1.7-0.9,3.1-1.9,4.2-3c1-1.1,1.7-1.9,2-2.5v6.2h12.9v-35.9h-13V141.5z M328.5,158.4
			c-0.7,1.3-1.7,2.3-2.9,3c-1.2,0.7-2.6,1.1-4.2,1.1c-1.5,0-2.9-0.4-4.2-1.1s-2.3-1.7-3-3c-0.7-1.3-1.1-2.7-1.1-4.3
			c0-1.6,0.4-3.1,1.1-4.3c0.7-1.3,1.7-2.3,3-3s2.6-1.1,4.2-1.1c1.6,0,3,0.4,4.2,1.1c1.2,0.7,2.2,1.7,2.9,3c0.7,1.3,1.1,2.7,1.1,4.3
			C329.5,155.7,329.2,157.2,328.5,158.4z"/>
		<g>
			<path class="st10" d="M378.6,124l-0.1,10.9h3.4l9.4,0v37.4h12.5V138c0-1.8,1.4-3.2,3.2-3.2h9.9V124L378.6,124z"/>
			
				<linearGradient id="SVGID_00000177480398684603556740000012276622992567507083_" gradientUnits="userSpaceOnUse" x1="378.4334" y1="129.4619" x2="397.6823" y2="129.4619">
				<stop  offset="0" style="stop-color:#AEE17B"/>
				<stop  offset="0.3452" style="stop-color:#9DD35F"/>
				<stop  offset="1" style="stop-color:#17AE6B"/>
			</linearGradient>
			<path style="fill:url(#SVGID_00000177480398684603556740000012276622992567507083_);" d="M378.4,134.9L378.4,134.9l0-10.9h4.9
				l14.3,0c-4.9,0.5-6.2,4.2-6.3,8.1c0,0.9,0,2.8,0,2.8L378.4,134.9z"/>
		</g>
		<path class="st10" d="M368.3,135.5c-9.9,0-16,8.3-16,15.8c0,0.9,0,5.4,0,6.3v0.1v14.8h12.8v-20.3c0-3.1,2.5-5.6,5.6-5.6h7.9v-11.1
			h-6.8H368.3z"/>
		<path class="st10" d="M552.2,137.7c-2.8-1.4-6.2-2.1-10-2.1c-4,0-7.5,0.8-10.4,2.4c-2.9,1.6-5,3.8-6.5,6.6
			c-1.5,2.7-2.2,5.8-2.2,9.3c0,4.1,0.9,7.6,2.6,10.4c1.7,2.8,4.1,5,7.1,6.4s6.5,2.2,10.4,2.2c3.2,0,5.9-0.2,8-0.7
			c2.1-0.5,3.8-1.1,5.1-1.8c1.3-0.7,2.3-1.5,3.1-2.2l-5.1-8.1c-0.5,0.5-1.3,1.1-2.3,1.6c-1,0.5-2.1,1-3.5,1.3
			c-1.3,0.3-2.8,0.5-4.5,0.5c-1.8,0-3.3-0.3-4.6-0.8c-1.3-0.5-2.2-1.3-3-2.3c-0.7-1-1.1-2.1-1.2-3.4h25.5c0.1-0.2,0.1-0.7,0.1-1.4
			s0-1.2,0-1.4c0-4.1-0.8-7.6-2.3-10.3C557.2,141.1,555.1,139.1,552.2,137.7z M535.7,150.2c0.1-1,0.4-1.9,0.9-2.8
			c0.5-0.9,1.3-1.6,2.2-2.2c1-0.6,2.2-0.9,3.7-0.9c1.4,0,2.6,0.3,3.5,0.9c0.9,0.6,1.6,1.3,2.1,2.3c0.5,0.9,0.7,1.8,0.7,2.8H535.7z"
			/>
		<path class="st10" d="M466,161.2c-0.9,0.1-3.2,0-5-1c-1-0.5-1.7-1.3-2.4-2.3c-0.6-1-0.9-2.3-0.9-3.8c0-1.5,0.3-2.7,0.9-3.7
			c0.6-1,1.4-1.8,2.4-2.3c1.8-1,4.1-1.1,5-1c0,0,4.6,0,7.8,2.2l0.1-12.5c-3.4-0.8-6.8-1.4-10.2-1.3c-3.2,0-6.3,0.7-9.1,2.1
			c-2.9,1.4-5.2,3.6-7,6.4c-1.8,2.8-2.7,6.2-2.7,10.1h0c0,0,0,0,0,0s0,0,0,0h0c0,3.9,0.9,7.4,2.7,10.2c1.8,2.8,4.1,4.9,7,6.4
			c2.8,1.4,5.9,2.1,9.1,2.1c3.4,0.1,6.8-0.4,10.2-1.3l-0.1-12.5C470.5,161.2,466,161.2,466,161.2z"/>
		<g>
			<rect x="482.7" y="124.7" class="st10" width="12.6" height="48.1"/>
			<polygon class="st10" points="507.9,151.4 519.8,135.6 507.2,135.6 495.3,151.4 495.3,151.4 507.1,172.8 519.6,172.8 
				507.9,151.4 			"/>
		</g>
		<path class="st10" d="M584.2,156.4v-9.1h2.4h7.6V137h-7.6c0,0-1,0-2.4,0v-12.6h-12.3V137h-4.9v10.3h4.9v3.6v0.4c0,1.3,0,5.2,0,6
			c0,7.2,5.9,15.2,15.4,15.2h3.4h3.8v-10.7h-4.8C586.6,161.8,584.2,159.3,584.2,156.4z"/>
		<path class="st10" d="M292.9,170.7l0-14.6c-1.5,1.7-3.2,2.9-5,3.8c-1.8,0.9-3.8,1.3-6,1.3c-1.9,0-3.7-0.3-5.3-0.9
			c-1.6-0.6-3-1.4-4.1-2.5c-1.1-1.1-2-2.4-2.7-3.9c-0.6-1.5-1-3.2-1-5c0-1.8,0.3-3.5,1-5c0.6-1.5,1.5-2.8,2.7-3.9
			c1.1-1.1,2.5-1.9,4.1-2.5c1.6-0.6,3.3-0.9,5.3-0.9c2.2,0,4.2,0.4,6,1.3c1.8,0.9,3.5,2.1,5,3.7l0-14.6l0.2,0
			c-0.1,0-0.1-0.1-0.2-0.1c-3.4-1.5-7.2-2.2-11.5-2.2c-3.7,0-7.1,0.6-10.2,1.8c-3.1,1.2-5.8,2.8-8.1,5c-2.3,2.2-4.1,4.7-5.4,7.7
			c-1.3,3-1.9,6.2-1.9,9.8c0,3.5,0.6,6.8,1.9,9.8c1.3,3,3.1,5.5,5.4,7.7c2.3,2.2,5,3.8,8.1,5c3.1,1.2,6.5,1.8,10.2,1.8
			c4.3,0,8.1-0.8,11.5-2.3c0.1,0,0.2-0.1,0.3-0.1L292.9,170.7z"/>
	</g>
</g>
</svg>
