<?xml version="1.0" encoding="utf-8"?>
<!-- Generator: Adobe Illustrator 26.4.1, SVG Export Plug-In . SVG Version: 6.00 Build 0)  -->
<svg version="1.1" id="Layer_1" xmlns="http://www.w3.org/2000/svg" xmlns:xlink="http://www.w3.org/1999/xlink" x="0px" y="0px"
	 viewBox="0 0 323.8 242" style="enable-background:new 0 0 323.8 242;" xml:space="preserve">
<style type="text/css">
	.st0{fill:url(#SVGID_1_);}
	.st1{fill:url(#SVGID_00000063600650795505454790000003942040209295827637_);}
	.st2{fill:url(#SVGID_00000115500828492466617430000015198988795786211498_);}
	.st3{fill:url(#SVGID_00000136381329371823574730000003909433794980502170_);}
	.st4{fill:#1E1B37;}
	.st5{fill:url(#SVGID_00000150067901575662050030000003779626930363337602_);}
</style>
<g>
	<g>
		<linearGradient id="SVGID_1_" gradientUnits="userSpaceOnUse" x1="145.9166" y1="133.0989" x2="110.0291" y2="64.3956">
			<stop  offset="0" style="stop-color:#439AE5"/>
			<stop  offset="1" style="stop-color:#275D89"/>
		</linearGradient>
		<path class="st0" d="M175.8,138.3l-37-28.1c-2.9-2.2-4.6-5.6-4.6-9.2v-22l-25.6-18.7v47c0,8.1,3.8,15.8,10.4,20.6l35.4,26.4
			L175.8,138.3z"/>
		
			<linearGradient id="SVGID_00000130640327778330649340000010668338262063213716_" gradientUnits="userSpaceOnUse" x1="108.6229" y1="66.7655" x2="169.1352" y2="66.7655">
			<stop  offset="0" style="stop-color:#439AE5"/>
			<stop  offset="1" style="stop-color:#367BB7"/>
		</linearGradient>
		<path style="fill:url(#SVGID_00000130640327778330649340000010668338262063213716_);" d="M152.1,80.8c0-2.4,3.1-4.4,6.9-4.4
			c1.7,0,3.3,0.4,4.5,1.1l5.6-4.2l-39-28.9l-21.5,15.9L148,89.1l6.7-5C153.1,83.3,152.1,82.1,152.1,80.8z"/>
		<g>
			
				<linearGradient id="SVGID_00000019637900013214304290000004701064043269045414_" gradientUnits="userSpaceOnUse" x1="-1360.8158" y1="-456.5845" x2="-1406.8541" y2="-492.9669" gradientTransform="matrix(-1 0 0 -1 -1203.0931 -358.0258)">
				<stop  offset="0" style="stop-color:#439AE5"/>
				<stop  offset="1" style="stop-color:#367BB7"/>
			</linearGradient>
			<path style="fill:url(#SVGID_00000019637900013214304290000004701064043269045414_);" d="M161.8,98.3c0,2.4-3.1,4.4-6.9,4.4
				c-1.7,0-3.3-0.4-4.5-1.1l-5.4,4l37.1,28l5.9-4.3c-1.4-0.8-2.3-2-2.3-3.3c0-2.4,3.1-4.4,6.9-4.4c1.7,0,3.2,0.4,4.4,1l6.7-4.9
				l-37.5-28l-6.9,5.2C160.8,95.8,161.8,97,161.8,98.3z"/>
			
				<linearGradient id="SVGID_00000150093212493288962770000001997032491183416488_" gradientUnits="userSpaceOnUse" x1="-1369.2462" y1="-404.1666" x2="-1406.5634" y2="-475.6068" gradientTransform="matrix(-1 0 0 -1 -1203.0931 -358.0258)">
				<stop  offset="0" style="stop-color:#439AE5"/>
				<stop  offset="1" style="stop-color:#275D89"/>
			</linearGradient>
			<path style="fill:url(#SVGID_00000150093212493288962770000001997032491183416488_);" d="M135.6,40.2l42,31.2
				c2.9,2.2,4.6,5.6,4.6,9.2v53.1l25.6-19V75c0-8.1-3.8-15.8-10.4-20.6L157,24.3L135.6,40.2z"/>
		</g>
	</g>
	<g>
		<path class="st4" d="M161.7,185c-2.4-1.2-5.2-1.8-8.4-1.8c-3.4,0-6.3,0.7-8.7,2c-2.4,1.4-4.2,3.2-5.5,5.5
			c-1.2,2.3-1.9,4.9-1.9,7.8c0,3.5,0.7,6.4,2.2,8.8c1.4,2.4,3.4,4.2,6,5.4s5.5,1.8,8.8,1.8c2.7,0,5-0.2,6.7-0.6
			c1.8-0.4,3.2-0.9,4.3-1.5c1.1-0.6,1.9-1.2,2.6-1.9l-4.3-6.8c-0.5,0.5-1.1,0.9-1.9,1.4c-0.8,0.4-1.8,0.8-2.9,1.1
			c-1.1,0.3-2.4,0.4-3.8,0.4c-1.5,0-2.8-0.2-3.8-0.7c-1.1-0.5-1.9-1.1-2.5-1.9c-0.6-0.8-0.9-1.8-1-2.8H169c0-0.2,0.1-0.6,0.1-1.2
			s0-1,0-1.1c0-3.5-0.6-6.3-1.9-8.7C165.9,187.9,164.1,186.2,161.7,185z M147.8,195.5c0.1-0.8,0.3-1.6,0.8-2.4
			c0.4-0.7,1.1-1.4,1.9-1.8c0.8-0.5,1.8-0.7,3.1-0.7c1.2,0,2.2,0.2,3,0.7c0.8,0.5,1.3,1.1,1.7,1.9c0.4,0.8,0.6,1.5,0.6,2.3H147.8z"
			/>
		<path class="st4" d="M300.1,185c-2.4-1.2-5.2-1.8-8.4-1.8c-3.4,0-6.3,0.7-8.7,2c-2.4,1.4-4.2,3.2-5.5,5.5
			c-1.2,2.3-1.9,4.9-1.9,7.8c0,3.5,0.7,6.4,2.2,8.8c1.4,2.4,3.4,4.2,6,5.4s5.5,1.8,8.8,1.8c2.7,0,5-0.2,6.7-0.6
			c1.8-0.4,3.2-0.9,4.3-1.5c1.1-0.6,1.9-1.2,2.6-1.9l-4.3-6.8c-0.5,0.5-1.1,0.9-1.9,1.4c-0.8,0.4-1.8,0.8-2.9,1.1
			c-1.1,0.3-2.4,0.4-3.8,0.4c-1.5,0-2.8-0.2-3.8-0.7c-1.1-0.5-1.9-1.1-2.5-1.9c-0.6-0.8-0.9-1.8-1-2.8h21.4c0-0.2,0.1-0.6,0.1-1.2
			s0-1,0-1.1c0-3.5-0.6-6.3-1.9-8.7C304.2,187.9,302.4,186.2,300.1,185z M286.2,195.5c0.1-0.8,0.3-1.6,0.8-2.4
			c0.4-0.7,1.1-1.4,1.9-1.8c0.8-0.5,1.8-0.7,3.1-0.7c1.2,0,2.2,0.2,3,0.7c0.8,0.5,1.3,1.1,1.7,1.9c0.4,0.8,0.6,1.5,0.6,2.3H286.2z"
			/>
		<path class="st4" d="M223.7,189.3c-0.3-0.7-0.9-1.4-1.8-2.2c-0.8-0.8-1.9-1.5-3.3-2c-1.4-0.6-2.9-0.9-4.7-0.9
			c-2.8,0-5.3,0.7-7.4,2.1c-2.1,1.4-3.7,3.2-4.9,5.5c-1.2,2.3-1.8,4.9-1.8,7.7c0,2.8,0.6,5.4,1.8,7.7c1.2,2.3,2.8,4.1,4.9,5.5
			s4.6,2.1,7.4,2.1c1.9,0,3.5-0.4,4.9-1.1c1.4-0.7,2.5-1.5,3.4-2.4c0.9-0.9,1.4-1.6,1.6-2v5.1h10.5v-29.2h-10.6V189.3z M222.8,203
			c-0.6,1-1.3,1.9-2.3,2.4c-1,0.6-2.1,0.9-3.4,0.9c-1.2,0-2.4-0.3-3.4-0.9s-1.8-1.4-2.4-2.4c-0.6-1-0.9-2.2-0.9-3.5
			c0-1.3,0.3-2.5,0.9-3.5c0.6-1,1.4-1.9,2.4-2.5c1-0.6,2.1-0.9,3.4-0.9c1.3,0,2.4,0.3,3.4,0.9c1,0.6,1.8,1.4,2.3,2.5
			c0.6,1,0.9,2.2,0.9,3.5C223.7,200.8,223.4,202,222.8,203z"/>
		<path class="st4" d="M91.4,204.8c-0.8,0-2.6,0-4.2-0.8c-0.8-0.4-1.5-1.1-2-2c-0.5-0.8-0.7-1.9-0.8-3.2c0-1.2,0.3-2.3,0.8-3.1
			c0.5-0.9,1.2-1.5,2-2c1.5-0.8,3.4-0.9,4.2-0.8c0,0,3.8,0,6.5,1.8l0.1-10.5c-2.9-0.7-5.7-1.2-8.6-1.1c-2.7,0-5.3,0.6-7.6,1.8
			c-2.4,1.2-4.4,3-5.9,5.3c-1.5,2.3-2.2,5.2-2.2,8.5h0c0,0,0,0,0,0s0,0,0,0h0c0,3.3,0.8,6.2,2.2,8.5c1.5,2.3,3.5,4.1,5.9,5.3
			c2.4,1.2,4.9,1.8,7.6,1.8c2.8,0.1,5.7-0.4,8.6-1.1L98,202.9C95.3,204.8,91.4,204.8,91.4,204.8z"/>
		<path class="st4" d="M62.4,178.9c-1.4,0-2.6-0.5-3.6-1.5c-1-1-1.5-2.2-1.5-3.6c0-1.4,0.5-2.6,1.5-3.6c1-1,2.2-1.5,3.6-1.5
			c0.9,0,1.8,0.2,2.6,0.7c0.8,0.5,1.4,1.1,1.9,1.9c0.5,0.8,0.7,1.6,0.7,2.6c0,1.4-0.5,2.6-1.5,3.6C65,178.4,63.8,178.9,62.4,178.9z
			 M57.1,214.5v-31.3h10.5v31.3H57.1z"/>
		<g>
			<rect x="104.6" y="174.1" class="st4" width="10.5" height="40.4"/>
			<polygon class="st4" points="125.7,196.6 135.7,183.3 125.2,183.3 115.2,196.6 115.2,196.6 125,214.5 135.6,214.5 125.7,196.6 
							"/>
		</g>
		<g>
			<rect x="242.6" y="174.1" class="st4" width="10.5" height="40.4"/>
			<polygon class="st4" points="263.7,196.6 273.7,183.3 263.2,183.3 253.2,196.6 253.2,196.6 263.1,214.5 273.6,214.5 263.7,196.6 
							"/>
		</g>
		<g>
			<path class="st4" d="M16.7,174.1l0,9.2h4.3l7.9,0v31.3h10.5v-28.7c0-1.5,1.2-2.7,2.7-2.7h8.3v-9.1L16.7,174.1z"/>
			
				<linearGradient id="SVGID_00000181059394369299550070000016379972699280657826_" gradientUnits="userSpaceOnUse" x1="16.3701" y1="178.6785" x2="34.0874" y2="178.6785">
				<stop  offset="0" style="stop-color:#A0CDF2"/>
				<stop  offset="1.593788e-02" style="stop-color:#96C8F1"/>
				<stop  offset="5.343712e-02" style="stop-color:#85BFEE"/>
				<stop  offset="0.1001" style="stop-color:#7AB9EC"/>
				<stop  offset="0.1657" style="stop-color:#73B5EB"/>
				<stop  offset="0.3476" style="stop-color:#71B4EB"/>
				<stop  offset="0.4572" style="stop-color:#6CAEE4"/>
				<stop  offset="0.6161" style="stop-color:#5D9DD1"/>
				<stop  offset="0.8051" style="stop-color:#4581B1"/>
				<stop  offset="1" style="stop-color:#275D89"/>
			</linearGradient>
			<path style="fill:url(#SVGID_00000181059394369299550070000016379972699280657826_);" d="M18,183.2h-1.6v-9.1h4.1l13.6,0
				c-4.1,0.4-5.2,3.5-5.3,6.8c0,0.7,0,2.3,0,2.4L18,183.2z"/>
		</g>
		<path class="st4" d="M186.5,200.8v-7.7h2.1h6.5v-8.8h-6.5c0,0-0.9,0-2.1,0v-10.7H176v10.7h-4.2v8.8h4.2v3v0.4c0,1.1,0,4.4,0,5.1
			c0,6.1,5,12.9,13.1,12.9h2.9h3.2v-9.1h-4.1C188.6,205.4,186.5,203.4,186.5,200.8z"/>
	</g>
</g>
</svg>
