<?xml version="1.0" encoding="utf-8"?>
<!-- Generator: Adobe Illustrator 26.4.1, SVG Export Plug-In . SVG Version: 6.00 Build 0)  -->
<svg version="1.1" id="Layer_1" xmlns="http://www.w3.org/2000/svg" xmlns:xlink="http://www.w3.org/1999/xlink" x="0px" y="0px"
	 viewBox="0 0 412.5 106.3" style="enable-background:new 0 0 412.5 106.3;" xml:space="preserve">
<style type="text/css">
	.st0{fill:#1E1B37;}
	.st1{fill:url(#SVGID_1_);}
	.st2{fill:url(#SVGID_00000047762712187758516260000017004268665644480701_);}
	.st3{fill:url(#SVGID_00000073706307589172642970000011175690098007605414_);}
	.st4{fill:url(#SVGID_00000147909137255817767950000010781425945878820259_);}
	.st5{fill:url(#SVGID_00000139983987111314618580000005085929967749989547_);}
	.st6{fill:url(#SVGID_00000088092379495776035400000010660245796911046532_);}
</style>
<g>
	<path class="st0" d="M388.9,54.1c0-0.5,0.1-0.9,0.4-1.4c0.2-0.4,0.6-0.7,1-1c0.4-0.2,0.9-0.4,1.3-0.4c0.5,0,1,0.1,1.4,0.4
		c0.4,0.2,0.7,0.6,1,1c0.2,0.4,0.4,0.9,0.4,1.4c0,0.5-0.1,0.9-0.4,1.3c-0.2,0.4-0.6,0.7-1,1c-0.4,0.2-0.9,0.4-1.4,0.4
		c-0.5,0-0.9-0.1-1.3-0.4c-0.4-0.2-0.7-0.6-1-1C389.1,55,388.9,54.6,388.9,54.1z M389.5,54.1c0,0.4,0.1,0.7,0.3,1.1
		c0.2,0.3,0.4,0.6,0.8,0.8c0.3,0.2,0.7,0.3,1.1,0.3c0.4,0,0.8-0.1,1.1-0.3c0.3-0.2,0.6-0.4,0.8-0.8c0.2-0.3,0.3-0.7,0.3-1.1
		c0-0.4-0.1-0.8-0.3-1.1c-0.2-0.3-0.5-0.6-0.8-0.8c-0.3-0.2-0.7-0.3-1.1-0.3c-0.4,0-0.7,0.1-1.1,0.3c-0.3,0.2-0.6,0.5-0.8,0.8
		C389.6,53.4,389.5,53.7,389.5,54.1z M390.8,52.8h0.9c0.2,0,0.4,0.1,0.6,0.2c0.2,0.1,0.2,0.3,0.2,0.5c0,0.2,0,0.3-0.1,0.5
		c-0.1,0.1-0.2,0.2-0.4,0.3l0.9,1h-0.7l-0.7-1h0v1h-0.6V52.8z M391.4,53.9L391.4,53.9c0.2,0,0.3,0,0.4,0c0.1,0,0.2-0.1,0.2-0.3
		c0-0.2-0.1-0.3-0.2-0.3c-0.1,0-0.2,0-0.3,0h0V53.9z"/>
</g>
<g>
	<g>
		<path class="st0" d="M386.2,51.1v5.5h-3.9c-1.5,0-2.8,1.3-2.8,2.8v10.7H373v-8v-0.2c0-0.7,0-2.6,0-3c0-3.7,3-7.9,8-7.9H386.2z"/>
		<path class="st0" d="M342.4,61.8v-4.7h1.3h3.9v-5.7h-3.9c0,0-0.5,0-1.3,0v-6.2H336v6.2h-2.5v5.7h2.5V59v0.2c0,0.7,0,2.7,0,3.1
			c0,3.7,3,7.9,8,7.9h1.7h2v-5.5h-2.5C343.7,64.6,342.4,63.4,342.4,61.8z"/>
		<polygon class="st0" points="262.6,54.2 262.6,70.2 256.2,70.2 256.2,45.3 262.6,45.3 262.6,45.3 262.6,45.3 271.3,53.9 
			279.9,45.3 286.3,45.3 286.3,70.2 279.9,70.2 279.9,54.1 271.3,62.8 		"/>
		<path class="st0" d="M271.3,62.8"/>
		<path class="st0" d="M355,52c0,0-4.5,2.3-4.5,8.7c0,2.1,0.4,4,1.3,5.4c0.9,1.5,2.1,2.6,3.6,3.4c1.5,0.8,3.3,1.1,5.3,1.1
			c1.6,0,3-0.1,4.1-0.4c1.1-0.2,1.9-0.6,2.6-0.9c0.7-0.4,1.2-0.8,1.6-1.2l-2.4-4.6c0,0-1.1,0.7-2.4,1.1c-0.8,0.3-1.8,0.5-3,0.4
			c-1.1-0.1-2.1-0.3-2.9-0.9c-1.3-0.9-1.1-1.9-1.1-1.9h12.6c0,0,0.1-1.4,0.1-3.3c0-2.4-1.1-5.6-4.5-7.2C359.7,49.1,355,52,355,52z
			 M357.2,58.7c0-0.5,0.2-0.9,0.4-1.4c0.2-0.4,0.6-0.8,1-1c0.5-0.3,1-0.4,1.7-0.4c0.7,0,1.2,0.1,1.6,0.4c0.4,0.3,0.7,0.6,1,1.1
			c0.2,0.4,0.3,0.9,0.3,1.3H357.2z"/>
		<path class="st0" d="M304.8,53.9c-0.2-0.4-0.6-0.9-1.1-1.4c-0.5-0.5-1.3-0.9-2.1-1.3c-0.9-0.4-1.9-0.6-3.1-0.6
			c-1.8,0-3.4,0.4-4.8,1.3c-1.4,0.9-2.4,2.1-3.2,3.6c-0.8,1.5-1.1,3.2-1.1,5c0,1.8,0.4,3.5,1.1,5c0.8,1.5,1.8,2.7,3.2,3.6
			s3,1.3,4.8,1.3c1.2,0,2.3-0.2,3.2-0.7c0.9-0.5,1.6-1,2.2-1.6c0.6-0.6,0.9-1,1-1.3v3.3h6.8V51.2h-6.9V53.9z M304.3,62.8
			c-0.4,0.7-0.9,1.2-1.5,1.6c-0.6,0.4-1.4,0.6-2.2,0.6c-0.8,0-1.6-0.2-2.2-0.6c-0.7-0.4-1.2-0.9-1.6-1.6c-0.4-0.7-0.6-1.4-0.6-2.3
			c0-0.8,0.2-1.6,0.6-2.3c0.4-0.7,0.9-1.2,1.6-1.6c0.7-0.4,1.4-0.6,2.2-0.6c0.8,0,1.6,0.2,2.2,0.6c0.6,0.4,1.2,0.9,1.5,1.6
			c0.4,0.7,0.6,1.4,0.6,2.3C304.8,61.4,304.6,62.2,304.3,62.8z"/>
		<g>
			<path class="st0" d="M245,70.1v-3.9c-0.1,0.4-0.5,0.9-1,1.6c-0.6,0.7-1.4,1.3-2.4,1.8c-1,0.5-2.2,0.8-3.5,0.8
				c-1.7,0-3.3-0.4-4.6-1.2c-1.4-0.8-2.5-1.9-3.3-3.4c-0.8-1.5-1.2-3.2-1.2-5.1c0-2,0.4-3.7,1.2-5.1c0.8-1.5,1.9-2.6,3.3-3.4
				c1.4-0.8,2.9-1.2,4.6-1.2c1.3,0,2.5,0.2,3.5,0.7c1,0.5,1.8,1,2.4,1.7c0.6,0.6,0.9,1.2,1,1.6v-3.7h3.9v19H245z M232.8,60.6
				c0,1.3,0.3,2.5,0.9,3.5c0.6,1,1.3,1.7,2.3,2.3c0.9,0.5,1.9,0.8,3,0.8c1.1,0,2.2-0.3,3.1-0.8c0.9-0.5,1.6-1.3,2.1-2.3
				c0.5-1,0.8-2.1,0.8-3.4c0-1.3-0.3-2.4-0.8-3.4c-0.5-1-1.2-1.7-2.1-2.3c-0.9-0.5-1.9-0.8-3.1-0.8c-1.1,0-2.1,0.3-3,0.8
				c-0.9,0.5-1.7,1.3-2.3,2.3C233.1,58.2,232.8,59.3,232.8,60.6z"/>
			<path class="st0" d="M164.8,75.8v-9.6c-0.1,0.4-0.5,0.9-1,1.6c-0.6,0.7-1.4,1.3-2.4,1.8c-1,0.5-2.2,0.8-3.5,0.8
				c-1.7,0-3.3-0.4-4.6-1.2c-1.4-0.8-2.5-1.9-3.3-3.4c-0.8-1.5-1.2-3.2-1.2-5.1c0-2,0.4-3.7,1.2-5.1c0.8-1.5,1.9-2.6,3.3-3.4
				c1.4-0.8,2.9-1.2,4.6-1.2c1.3,0,2.5,0.2,3.5,0.7c1,0.5,1.8,1,2.4,1.7c0.6,0.6,0.9,1.2,1,1.6v-3.7h3.9v24.7H164.8z M152.5,60.6
				c0,1.3,0.3,2.5,0.9,3.5c0.6,1,1.3,1.7,2.3,2.3c0.9,0.5,1.9,0.8,3,0.8c1.1,0,2.2-0.3,3.1-0.8c0.9-0.5,1.6-1.3,2.1-2.3
				c0.5-1,0.8-2.1,0.8-3.4c0-1.3-0.3-2.4-0.8-3.4c-0.5-1-1.2-1.7-2.1-2.3c-0.9-0.5-1.9-0.8-3.1-0.8c-1.1,0-2.1,0.3-3,0.8
				c-0.9,0.5-1.7,1.3-2.3,2.3C152.8,58.2,152.5,59.3,152.5,60.6z"/>
			<path class="st0" d="M182.2,70.7c-1.3,0-2.5-0.3-3.7-0.8c-1.2-0.5-2.2-1.4-2.9-2.5c-0.8-1.1-1.2-2.6-1.2-4.5V51.2h4.1v11
				c0,1.9,0.4,3.3,1.3,4.1c0.9,0.9,2,1.3,3.4,1.3c0.9,0,1.8-0.3,2.6-0.8c0.8-0.5,1.5-1.2,2.1-2.1c0.5-0.9,0.8-1.9,0.8-3.1V51.2h4.1
				v19h-4.1v-3.4c-0.1,0.5-0.5,1.1-1.1,1.7c-0.6,0.6-1.4,1.1-2.4,1.6C184.3,70.5,183.3,70.7,182.2,70.7z"/>
			<linearGradient id="SVGID_1_" gradientUnits="userSpaceOnUse" x1="101.6736" y1="47.0174" x2="116.4542" y2="47.0174">
				<stop  offset="0" style="stop-color:#E2BF29"/>
				<stop  offset="0.2798" style="stop-color:#F4E200"/>
				<stop  offset="0.5963" style="stop-color:#E2BF29"/>
				<stop  offset="0.7581" style="stop-color:#BFA021"/>
			</linearGradient>
			<path class="st1" d="M111.9,48.9h-10.3l0-3.8l14.8,0L111.9,48.9z"/>
			<path class="st0" d="M109.9,70.3l0-19.8c0-3,2.4-5.4,5.4-5.4h7.1v3.8h-6.2c-1.2,0-2.2,1-2.2,2.2v0.1v19
				C113.9,70.3,110,70.3,109.9,70.3z"/>
			<path class="st0" d="M201.4,47.9c-0.7,0-1.4-0.3-1.9-0.8c-0.5-0.5-0.8-1.1-0.8-1.9c0-0.7,0.3-1.4,0.8-1.9
				c0.5-0.5,1.1-0.8,1.9-0.8c0.5,0,0.9,0.1,1.3,0.4c0.4,0.2,0.7,0.6,1,1s0.4,0.8,0.4,1.3c0,0.7-0.3,1.4-0.8,1.9
				C202.8,47.7,202.2,47.9,201.4,47.9z M199.3,70.2V51.2h4.1v18.9H199.3z"/>
			<path class="st0" d="M209.8,70.2V45.3h4.1v24.9H209.8z"/>
			<path class="st0" d="M220.2,70.2V45.3h4.1v24.9H220.2z"/>
			<path class="st0" d="M140.4,70.1v-3.9c-0.1,0.4-0.5,0.9-1,1.6c-0.6,0.7-1.4,1.3-2.4,1.8c-1,0.5-2.2,0.8-3.5,0.8
				c-1.7,0-3.3-0.4-4.6-1.2c-1.4-0.8-2.5-1.9-3.3-3.4c-0.8-1.5-1.2-3.2-1.2-5.1c0-2,0.4-3.7,1.2-5.1c0.8-1.5,1.9-2.6,3.3-3.4
				c1.4-0.8,2.9-1.2,4.6-1.2c1.3,0,2.5,0.2,3.5,0.7c1,0.5,1.8,1,2.4,1.7c0.6,0.6,0.9,1.2,1,1.6v-3.7h3.9v19H140.4z M128.2,60.6
				c0,1.3,0.3,2.5,0.9,3.5c0.6,1,1.3,1.7,2.3,2.3c0.9,0.5,1.9,0.8,3,0.8c1.1,0,2.2-0.3,3.1-0.8c0.9-0.5,1.6-1.3,2.1-2.3
				c0.5-1,0.8-2.1,0.8-3.4c0-1.3-0.3-2.4-0.8-3.4c-0.5-1-1.2-1.7-2.1-2.3c-0.9-0.5-1.9-0.8-3.1-0.8c-1.1,0-2.1,0.3-3,0.8
				c-0.9,0.5-1.7,1.3-2.3,2.3C128.5,58.2,128.2,59.3,128.2,60.6z"/>
		</g>
		<path class="st0" d="M324.9,65.1c-0.5,0.2-1.3,0.3-1.9,0.3c-2,0-4.3-0.8-5.4-1.3c0,0-2.2,5-2.2,5c4.2,1.8,13.1,2.6,14.9-2.9
			c0.6-1.9,0.6-4.1-0.9-5.5c-2-2.1-5.5-2.5-8-3.5c0,0-0.3-0.1-0.3-0.4c-0.1-0.3,0.3-0.5,0.3-0.5c1.7-0.7,4.4-0.2,6.2,0.4l0,0
			c0,0,1.7-5,1.7-5c-2.8-0.8-5.8-1.1-8.7-0.4c-3.8,0.8-6.2,4.3-4.4,8.2c1.5,2.7,4.6,3.2,7.1,3.8c0.5,0.1,0.9,0.2,1.3,0.4
			c0,0,0.4,0.1,0.6,0.4C325.6,64.4,325.5,64.9,324.9,65.1z"/>
	</g>
	<g>
		
			<linearGradient id="SVGID_00000040576836828720503240000017773155803589203123_" gradientUnits="userSpaceOnUse" x1="29.5579" y1="91.1015" x2="79.6108" y2="24.6789">
			<stop  offset="4.314211e-02" style="stop-color:#E2BF29"/>
			<stop  offset="0.1573" style="stop-color:#F4E200"/>
			<stop  offset="0.2963" style="stop-color:#F7EE86"/>
			<stop  offset="0.4622" style="stop-color:#F4E200"/>
			<stop  offset="0.6545" style="stop-color:#E2BF29"/>
			<stop  offset="0.8373" style="stop-color:#C19C25"/>
			<stop  offset="1" style="stop-color:#96701D"/>
		</linearGradient>
		<path style="fill:url(#SVGID_00000040576836828720503240000017773155803589203123_);" d="M41.9,86.4c2.1-4.9,7-8.4,12.6-8.4
			s10.6,3.5,12.6,8.4h18.6v-57l-31.4,8.2l-31.2-8.2v57H41.9z"/>
		<g>
			
				<linearGradient id="SVGID_00000181086381648350654370000011774799196307133100_" gradientUnits="userSpaceOnUse" x1="54.5873" y1="34.6468" x2="54.5873" y2="69.9112">
				<stop  offset="1.030388e-03" style="stop-color:#96701D"/>
				<stop  offset="1" style="stop-color:#E2BF29"/>
			</linearGradient>
			<path style="fill:url(#SVGID_00000181086381648350654370000011774799196307133100_);" d="M54.5,69.9L37.9,57.6
				c-1.1-0.8-1.8-2.2-1.8-3.6V34.6h36.9v19.4c0,1.4-0.7,2.7-1.8,3.6h0L54.5,69.9z M39.2,37.7v16.4c0,0.4,0.2,0.9,0.6,1.1l14.8,10.9
				l14.9-10.9c0.4-0.3,0.6-0.7,0.6-1.1V37.7H39.2z"/>
			<g>
				
					<linearGradient id="SVGID_00000173152814215586915800000003764887309467870359_" gradientUnits="userSpaceOnUse" x1="35.8696" y1="52.3096" x2="73.3049" y2="52.3096">
					<stop  offset="0.4819" style="stop-color:#F4E876"/>
					<stop  offset="0.5261" style="stop-color:#C19C25"/>
				</linearGradient>
				<path style="fill:url(#SVGID_00000173152814215586915800000003764887309467870359_);" d="M35.9,34.4v19.7c0,1.5,0.7,2.9,1.9,3.8
					l16.8,12.4l16.8-12.4c1.2-0.9,1.9-2.3,1.9-3.8V34.4H35.9z M72.8,54.1c0,1.3-0.6,2.6-1.7,3.4L54.5,69.6L38.1,57.4
					c-1.1-0.8-1.7-2-1.7-3.4V34.9h36.4V54.1z"/>
				
					<linearGradient id="SVGID_00000047046039106504809920000013827480966071204278_" gradientUnits="userSpaceOnUse" x1="54.5873" y1="37.4299" x2="54.5873" y2="66.4541">
					<stop  offset="0.5841" style="stop-color:#F4E876"/>
					<stop  offset="0.6279" style="stop-color:#C19C25"/>
				</linearGradient>
				<path style="fill:url(#SVGID_00000047046039106504809920000013827480966071204278_);" d="M39.6,55.4l15,11.1l15-11.1
					c0.4-0.3,0.7-0.8,0.7-1.3V37.4H38.9v16.6C38.9,54.6,39.2,55.1,39.6,55.4z M39.4,37.9h30.4v16.1c0,0.4-0.2,0.7-0.5,0.9L54.6,65.8
					L39.9,55c-0.3-0.2-0.5-0.6-0.5-0.9V37.9z"/>
			</g>
		</g>
		
			<linearGradient id="SVGID_00000019656174108203260060000003731080216154945210_" gradientUnits="userSpaceOnUse" x1="43.2358" y1="44.4489" x2="65.9119" y2="14.3567">
			<stop  offset="0" style="stop-color:#D3B023"/>
			<stop  offset="0.1473" style="stop-color:#E3C126"/>
			<stop  offset="0.545" style="stop-color:#F4E200"/>
			<stop  offset="0.6311" style="stop-color:#F4F29D"/>
			<stop  offset="0.7477" style="stop-color:#F4E200"/>
			<stop  offset="1" style="stop-color:#E2BF29"/>
		</linearGradient>
		<path style="fill:url(#SVGID_00000019656174108203260060000003731080216154945210_);" d="M23.3,29.4l13.2-9.8l16,12
			c1.2,0.9,3,0.9,4.2,0l16.1-12.1l13.1,9.8L62.5,46.8c-4.7,3.5-11.1,3.5-15.8,0L23.3,29.4z"/>
	</g>
</g>
</svg>
